<svg width="512" height="512" viewBox="0 0 512 512" fill="none" xmlns="http://www.w3.org/2000/svg">
<g clip-path="url(#clip0_1_5)">
<path d="M448 42.6667H384V0H341.333V42.6667H170.667V0H128V42.6667H64C47.0261 42.6667 30.7475 49.4095 18.7452 61.4118C6.74284 73.4142 0 89.6928 0 106.667L0 512H512V106.667C512 89.6928 505.257 73.4142 493.255 61.4118C481.253 49.4095 464.974 42.6667 448 42.6667ZM42.6667 106.667C42.6667 101.009 44.9143 95.5825 48.9151 91.5817C52.9158 87.581 58.342 85.3333 64 85.3333H448C453.658 85.3333 459.084 87.581 463.085 91.5817C467.086 95.5825 469.333 101.009 469.333 106.667V170.667H42.6667V106.667ZM42.6667 469.333V213.333H469.333V469.333H42.6667Z" fill="white"/>
<path d="M362.667 277.333H320V320H362.667V277.333Z" fill="white"/>
<path d="M277.333 277.333H234.667V320H277.333V277.333Z" fill="white"/>
<path d="M192 277.333H149.333V320H192V277.333Z" fill="white"/>
<path d="M362.667 362.667H320V405.333H362.667V362.667Z" fill="white"/>
<path d="M277.333 362.667H234.667V405.333H277.333V362.667Z" fill="white"/>
<path d="M192 362.667H149.333V405.333H192V362.667Z" fill="white"/>
</g>
<defs>
<clipPath id="clip0_1_5">
<rect width="512" height="512" fill="white"/>
</clipPath>
</defs>
</svg>
