<svg width="512" height="512" viewBox="0 0 512 512" fill="none" xmlns="http://www.w3.org/2000/svg">
<path d="M256 512C306.632 512 356.127 496.986 398.226 468.856C440.325 440.727 473.137 400.745 492.513 353.967C511.889 307.189 516.959 255.716 507.081 206.057C497.203 156.398 472.822 110.783 437.019 74.9808C401.217 39.1785 355.602 14.7969 305.943 4.91908C256.284 -4.95873 204.811 0.110922 158.033 19.487C111.255 38.863 71.2734 71.6751 43.1438 113.774C15.0141 155.873 0 205.368 0 256C0.0734097 323.873 27.0683 388.945 75.0617 436.938C123.055 484.932 188.127 511.927 256 512ZM256 106.667C262.329 106.667 268.516 108.544 273.778 112.06C279.041 115.576 283.142 120.574 285.564 126.421C287.986 132.268 288.62 138.702 287.385 144.91C286.15 151.117 283.103 156.819 278.627 161.294C274.152 165.769 268.45 168.817 262.243 170.052C256.035 171.287 249.601 170.653 243.754 168.231C237.907 165.809 232.909 161.707 229.393 156.445C225.877 151.183 224 144.996 224 138.667C224 130.18 227.371 122.041 233.373 116.039C239.374 110.038 247.513 106.667 256 106.667ZM234.667 213.333H256C267.316 213.333 278.168 217.829 286.17 225.83C294.171 233.832 298.667 244.684 298.667 256V384C298.667 389.658 296.419 395.084 292.418 399.085C288.417 403.086 282.991 405.333 277.333 405.333C271.675 405.333 266.249 403.086 262.248 399.085C258.248 395.084 256 389.658 256 384V256H234.667C229.009 256 223.583 253.753 219.582 249.752C215.581 245.751 213.333 240.325 213.333 234.667C213.333 229.009 215.581 223.583 219.582 219.582C223.583 215.581 229.009 213.333 234.667 213.333Z" fill="white"/>
</svg>
